<?xml version="1.0" encoding="UTF-8"?>
<svg id="Livello_2" data-name="Livello 2" xmlns="http://www.w3.org/2000/svg" viewBox="0 0 1440 681">
  <defs>
    <style>
      .cls-1 {
        stroke-width: 7px;
      }

      .cls-1, .cls-2 {
        fill: none;
        stroke: #4a61d1;
        stroke-linecap: round;
        stroke-miterlimit: 10;
      }

      .cls-2 {
        stroke-width: 12px;
      }
    </style>
  </defs>
  <path class="cls-1" d="M579.3,238.75c-4.11-2.72-10.34-6.07-18.49-7.9-12.34-2.77-22.09-.48-24.02,0-2.82.7-9.72,2.67-17.07,7.9-3.64,2.59-11.75,8.52-16.59,19.75-1.93,4.49-6.83,15.85-2.69,26.7,2.68,7.01,11.32,19.57,11.69,20.11.82,1.19,1.8,2.56,2.69,4.69.83,1.99,2.39,6.61.95,15.8-.45,2.9-1.68,6.82-4.11,14.54-1.69,5.38-2.73,8.39-4.42,14.22-1.59,5.47-2.31,8.41-2.37,12.32-.08,5.24,1.08,7.81,1.42,8.53.59,1.22,2.19,4.45,5.85,6.32,2.85,1.46,5.49,1.36,7.27,1.26,5.95-.3,10.26-3.45,12.17-5.06"/>
  <path class="cls-2" d="M580.01,284.73c-1.1-2.44-3.83-7.62-9.64-11.53-2.49-1.68-8.19-5.52-15.64-4.42-7.9,1.16-12.39,7.07-14.22,9.48-1.64,2.15-3.72,4.96-4.11,9.16-.12,1.3-.4,6.13,2.67,9.95,1.53,1.91,2.63,1.98,7.13,4.42,6.37,3.46,10.83,5.94,13.75,10.59.74,1.18,2.2,3.56,2.53,6.95.44,4.55-1.42,8.04-2.21,9.48-1.61,2.93-3.57,4.59-5.85,6.48-2.4,1.99-6.29,4.76-11.85,6.95"/>
  <path class="cls-2" d="M599.61,299.11c-4.48,1.62-6.81,4.95-8.37,7.17-4.74,6.77-4.49,13.9-4.42,15.27.16,3.2.44,8.64,4.74,12.96.67.67,5.83,5.69,12.64,4.58,6.88-1.12,10.2-7.64,11.53-10.27,4.09-8.04,1.85-15.87,1.11-18.49-1.11-3.88-2.57-9-7.27-11.22-4.31-2.04-8.81-.41-9.95,0Z"/>
  <path class="cls-2" d="M637.21,298.1c-.25,6.26-.15,11.46,0,15.22.53,12.97,2.02,16.21,3.63,18.49.96,1.35,4.34,6.1,9.01,6,5.61-.11,9.18-7.15,10.11-9.01.72-1.43,2.29-4.92,2.37-16.75.03-3.98-.11-9.32-.79-15.64"/>
  <path class="cls-2" d="M685.19,337.82c-2.16-23.84-2.55-39.25,0-39.72,4.32-.8,13.98,41.94,18.65,41.14,2.5-.43,3.11-13.31.63-45.51"/>
  <path class="cls-2" d="M728.28,296.42c-2.91,1.45-1.63,6.31-1.9,23.7-.16,10.75-.73,13.95,1.9,16.27,3.29,2.91,9.29,2.43,13.11,0,6.72-4.27,6.08-14.18,5.85-17.72-.14-2.12-1.01-11.57-8.69-17.99-1.97-1.64-7.04-5.88-10.27-4.27Z"/>
  <path class="cls-2" d="M818.24,298.47c-1.78.26-8.05,1.4-12.96,6.95-6.31,7.14-5.26,15.79-5.06,17.22.43,3.11,1.56,11.19,8.06,13.59,4.9,1.81,11.04-.27,15.17-5.21"/>
  <path class="cls-2" d="M840.7,338.4c.14-5.68.79-14.04,3.32-23.81,1.76-6.8,4.6-17.83,8.06-17.78,3.93.06,6.9,14.43,8.77,23.46,1.57,7.58,2.26,13.91,2.61,18.12"/>
  <path class="cls-2" d="M847.34,320.28h7.58"/>
  <path class="cls-2" d="M883.02,340.42c-.24-7.26-.76-13.1-1.19-17.07-.03-.28-.75-6.96-1.19-15.41-.42-8.17-.16-9.92,1.19-11.14,2.8-2.53,8.75-1.31,12.32,1.66,4.67,3.88,4.32,9.94,4.27,10.67-.48,6.49-5.81,10.1-7.35,11.14-3.68,2.5-7.4,2.97-9.24,3.08"/>
  <path class="cls-2" d="M935.66,300.14c-3.94-1.16-15.32-4.15-18.75,0-1.17,1.42-.62,2.73-.18,16.83.06,1.81.08,2.83.18,4.57.39,7.11.59,10.67,1.65,12.23,3.36,4.91,14.66,3.43,17.09,3.07"/>
  <path class="cls-2" d="M933.73,317.67h-12.13"/>
  <path class="cls-2" d="M977.13,306.99c-.49-.97-2.92-5.5-8.3-7.2-1.09-.34-6.51-2.06-10.9,1.27-2.18,1.65-4.39,4.76-4.03,8.06.24,2.18,1.66,3.8,4.5,7.03,2.68,3.06,3.32,2.9,4.66,4.9.67,1,3.17,4.73,2.44,8.69-.76,4.08-4.76,7.43-9.94,8.55"/>
  <path class="cls-2" d="M788.37,304.81c-.49-.97-2.92-5.5-8.3-7.2-1.09-.34-6.51-2.06-10.9,1.27-2.18,1.65-4.39,4.76-4.03,8.06.24,2.18,1.66,3.8,4.5,7.03,2.68,3.06,3.32,2.9,4.66,4.9.67,1,3.17,4.73,2.44,8.69-.76,4.08-4.76,7.43-9.94,8.55"/>
</svg>